<svg width="40" height="40" viewBox="0 0 40 40" fill="none" xmlns="http://www.w3.org/2000/svg">
    <g clip-path="url(#a)">
        <path d="M.588 20c0 10.72 8.69 19.41 19.412 19.41 10.72 0 19.412-8.69 19.412-19.411C39.412 9.279 30.721.588 20 .588 9.279.588.588 9.278.588 20Z" fill="#0C0C4F" stroke="#EC796B" stroke-width="1.176"/>
        <path fill-rule="evenodd" clip-rule="evenodd" d="m11.18 15.288.493-1.525c.1-.31.345-.552.656-.647l1.533-.471c.212-.065.214-.364.004-.433l-1.526-.493a.999.999 0 0 1-.647-.657l-.471-1.533c-.065-.211-.364-.214-.432-.003l-.494 1.526a.999.999 0 0 1-.657.646l-1.532.471a.227.227 0 0 0-.004.433l1.526.493a1 1 0 0 1 .647.657l.47 1.533a.227.227 0 0 0 .433.003Z" fill="#FAFAFA"/>
        <path fill-rule="evenodd" clip-rule="evenodd" d="M35.404 14.4c-.632-.706-1.618-1.104-2.577-1.267a8.854 8.854 0 0 0-2.933.027c-1.93.327-3.684 1.126-5.214 2.112-.794.484-1.471 1.044-2.173 1.614-.338.288-.647.596-.968.898l-.877.873c-.953.997-1.893 1.904-2.802 2.656-.913.75-1.766 1.318-2.607 1.715-.84.4-1.74.634-2.912.672-1.162.04-2.536-.17-4.006-.515-1.479-.345-3.031-.836-4.766-1.259.606 1.68 1.517 3.163 2.687 4.52 1.184 1.333 2.663 2.547 4.562 3.346 1.871.817 4.224 1.11 6.423.668 2.205-.425 4.14-1.445 5.704-2.625 1.569-1.192 2.837-2.55 3.907-3.962a27.4 27.4 0 0 0 .665-.913l.59-.875c.411-.541.785-1.157 1.19-1.694.797-1.122 1.583-2.244 2.495-3.277a13.96 13.96 0 0 1 1.515-1.507 8.02 8.02 0 0 1 .935-.673 4.43 4.43 0 0 1 1.162-.534Z" fill="url(#b)"/>
        <path fill-rule="evenodd" clip-rule="evenodd" d="M35.404 14.4c-.679-1.713-1.94-3.155-3.635-4.219-1.683-1.052-4.021-1.589-6.338-1.131a10.383 10.383 0 0 0-3.227 1.215 13.501 13.501 0 0 0-2.589 1.976c-.375.366-.716.748-1.054 1.133l-.877 1.118-1.354 1.8c-1.727 2.315-3.586 5.029-6.638 5.833-2.995.79-4.294.09-6.123-.199.335.863.749 1.701 1.31 2.439a9.696 9.696 0 0 0 2.01 2.064c.41.291.841.578 1.32.822.478.235.992.442 1.542.598 1.093.3 2.323.404 3.514.243a10.571 10.571 0 0 0 3.326-1.038 14.02 14.02 0 0 0 2.657-1.74c1.55-1.288 2.757-2.711 3.775-4.15.513-.719.978-1.451 1.409-2.184l.506-.873c.155-.255.311-.511.47-.75.642-.96 1.27-1.73 2.032-2.309.752-.592 1.798-1.03 3.197-1.132 1.393-.103 3.001.087 4.767.484Z" fill="#FAFAFA"/>
        <path fill-rule="evenodd" clip-rule="evenodd" d="M27.868 28.632a2.279 2.279 0 1 0 4.558 0 2.279 2.279 0 0 0-4.558 0Z" fill="url(#c)"/>
    </g>
    <defs>
        <linearGradient id="b" x1="35.234" y1="13.799" x2="-16.792" y2="40.867" gradientUnits="userSpaceOnUse">
            <stop stop-color="#EC796B"/>
            <stop offset="1" stop-color="#D672EF"/>
        </linearGradient>
        <linearGradient id="c" x1="32.422" y1="27.034" x2="24.119" y2="27.812" gradientUnits="userSpaceOnUse">
            <stop stop-color="#EC796B"/>
            <stop offset="1" stop-color="#D672EF"/>
        </linearGradient>
        <clipPath id="a">
            <path fill="#fff" d="M0 0h40v40H0z"/>
        </clipPath>
    </defs>
</svg>
